<svg width="86" height="62" viewBox="0 0 86 62" fill="none" xmlns="http://www.w3.org/2000/svg">
<path fill-rule="evenodd" clip-rule="evenodd" d="M15.4562 0.0139693C20.3872 -0.023029 24.7663 2.30786 27.6367 5.89669L0.147772 33.7934L0.000575767 15.7012C-0.0730223 7.11763 6.9188 0.0509675 15.4562 0.0139693ZM81.5105 4.60175C87.5087 10.6695 87.5087 20.622 81.4369 26.6897L54.7944 53.1804L45.1898 43.4499L68.7412 19.734C69.3668 19.1421 69.3668 18.1061 68.7412 17.4771C68.1156 16.8482 67.122 16.8482 66.4965 17.4771L53.1016 30.9815L52.476 31.5735C43.8282 40.2681 35.1805 48.8147 26.4591 57.4722C20.3872 63.54 10.5251 63.503 4.49006 57.3983C-1.50818 51.2935 -1.50819 41.378 4.56366 35.3103L31.2062 8.81955L40.8107 18.5501L20.1297 39.3431C19.5041 39.9721 19.5041 41.008 20.1297 41.637C20.7552 42.266 21.7488 42.266 22.3744 41.637L32.8989 31.0185L34.2605 29.6866C42.6507 21.251 51.0777 12.9264 59.5414 4.52776C65.6133 -1.53996 75.4754 -1.50296 81.5105 4.60175ZM70.3972 61.986C65.4661 62.023 61.087 59.6921 58.2167 56.1033L85.7056 27.9106L85.8528 46.2988C85.9264 54.8824 78.9345 61.949 70.3972 61.986Z" fill="white"/>
</svg>
